<mxfile host="app.diagrams.net" modified="2021-02-27T18:34:21.761Z" agent="5.0 (Windows NT 10.0; Win64; x64) AppleWebKit/537.36 (KHTML, like Gecko) Chrome/88.0.4324.182 Safari/537.36 Edg/88.0.705.74" etag="Fe-fI50VrFU5BNHOzE_H" version="14.4.3" type="github">
  <diagram id="lv8wtGqn_F2y7Mq12rpJ" name="Page-1">
    <mxGraphModel dx="1038" dy="580" grid="1" gridSize="10" guides="1" tooltips="1" connect="1" arrows="1" fold="1" page="1" pageScale="1" pageWidth="850" pageHeight="1100" math="0" shadow="0">
      <root>
        <mxCell id="0" />
        <mxCell id="1" parent="0" />
        <mxCell id="XKpG1QSNv2qLCJZhFj2I-1" value="" style="rounded=0;whiteSpace=wrap;html=1;" vertex="1" parent="1">
          <mxGeometry x="110" y="80" width="600" height="620" as="geometry" />
        </mxCell>
        <mxCell id="XKpG1QSNv2qLCJZhFj2I-3" value="" style="rounded=0;whiteSpace=wrap;html=1;" vertex="1" parent="1">
          <mxGeometry x="180" y="150" width="190" height="480" as="geometry" />
        </mxCell>
        <mxCell id="XKpG1QSNv2qLCJZhFj2I-9" style="edgeStyle=orthogonalEdgeStyle;rounded=0;orthogonalLoop=1;jettySize=auto;html=1;exitX=1;exitY=0.25;exitDx=0;exitDy=0;entryX=0;entryY=0.25;entryDx=0;entryDy=0;" edge="1" parent="1" source="XKpG1QSNv2qLCJZhFj2I-3" target="XKpG1QSNv2qLCJZhFj2I-4">
          <mxGeometry relative="1" as="geometry" />
        </mxCell>
        <mxCell id="XKpG1QSNv2qLCJZhFj2I-4" value="" style="rounded=0;whiteSpace=wrap;html=1;" vertex="1" parent="1">
          <mxGeometry x="470" y="150" width="190" height="480" as="geometry" />
        </mxCell>
        <mxCell id="XKpG1QSNv2qLCJZhFj2I-5" value="ControlUnit" style="text;html=1;strokeColor=none;fillColor=none;align=center;verticalAlign=middle;whiteSpace=wrap;rounded=0;" vertex="1" parent="1">
          <mxGeometry x="240" y="160" width="70" height="20" as="geometry" />
        </mxCell>
        <mxCell id="XKpG1QSNv2qLCJZhFj2I-6" value="Datapath" style="text;html=1;strokeColor=none;fillColor=none;align=center;verticalAlign=middle;whiteSpace=wrap;rounded=0;" vertex="1" parent="1">
          <mxGeometry x="532.5" y="160" width="65" height="20" as="geometry" />
        </mxCell>
        <mxCell id="XKpG1QSNv2qLCJZhFj2I-7" value="ld_cnt" style="text;html=1;strokeColor=none;fillColor=none;align=center;verticalAlign=middle;whiteSpace=wrap;rounded=0;" vertex="1" parent="1">
          <mxGeometry x="320" y="220" width="40" height="20" as="geometry" />
        </mxCell>
        <mxCell id="XKpG1QSNv2qLCJZhFj2I-8" value="ld_reg" style="text;html=1;strokeColor=none;fillColor=none;align=center;verticalAlign=middle;whiteSpace=wrap;rounded=0;" vertex="1" parent="1">
          <mxGeometry x="320" y="260" width="40" height="20" as="geometry" />
        </mxCell>
        <mxCell id="XKpG1QSNv2qLCJZhFj2I-10" style="edgeStyle=orthogonalEdgeStyle;rounded=0;orthogonalLoop=1;jettySize=auto;html=1;exitX=1;exitY=0.25;exitDx=0;exitDy=0;entryX=0;entryY=0.25;entryDx=0;entryDy=0;" edge="1" parent="1">
          <mxGeometry relative="1" as="geometry">
            <mxPoint x="370" y="229.5" as="sourcePoint" />
            <mxPoint x="470" y="229.5" as="targetPoint" />
          </mxGeometry>
        </mxCell>
        <mxCell id="XKpG1QSNv2qLCJZhFj2I-11" value="en" style="text;html=1;strokeColor=none;fillColor=none;align=center;verticalAlign=middle;whiteSpace=wrap;rounded=0;" vertex="1" parent="1">
          <mxGeometry x="320" y="300" width="40" height="20" as="geometry" />
        </mxCell>
        <mxCell id="XKpG1QSNv2qLCJZhFj2I-12" value="sel" style="text;html=1;strokeColor=none;fillColor=none;align=center;verticalAlign=middle;whiteSpace=wrap;rounded=0;" vertex="1" parent="1">
          <mxGeometry x="320" y="330" width="40" height="20" as="geometry" />
        </mxCell>
        <mxCell id="XKpG1QSNv2qLCJZhFj2I-13" value="oe" style="text;html=1;strokeColor=none;fillColor=none;align=center;verticalAlign=middle;whiteSpace=wrap;rounded=0;" vertex="1" parent="1">
          <mxGeometry x="320" y="370" width="40" height="20" as="geometry" />
        </mxCell>
        <mxCell id="XKpG1QSNv2qLCJZhFj2I-14" style="edgeStyle=orthogonalEdgeStyle;rounded=0;orthogonalLoop=1;jettySize=auto;html=1;exitX=1;exitY=0.25;exitDx=0;exitDy=0;entryX=0;entryY=0.25;entryDx=0;entryDy=0;" edge="1" parent="1">
          <mxGeometry relative="1" as="geometry">
            <mxPoint x="370" y="309.5" as="sourcePoint" />
            <mxPoint x="470" y="309.5" as="targetPoint" />
            <Array as="points">
              <mxPoint x="440" y="309.5" />
              <mxPoint x="440" y="309.5" />
            </Array>
          </mxGeometry>
        </mxCell>
        <mxCell id="XKpG1QSNv2qLCJZhFj2I-15" style="edgeStyle=orthogonalEdgeStyle;rounded=0;orthogonalLoop=1;jettySize=auto;html=1;exitX=1;exitY=0.25;exitDx=0;exitDy=0;entryX=0;entryY=0.25;entryDx=0;entryDy=0;" edge="1" parent="1">
          <mxGeometry relative="1" as="geometry">
            <mxPoint x="370" y="339.5" as="sourcePoint" />
            <mxPoint x="470" y="339.5" as="targetPoint" />
            <Array as="points">
              <mxPoint x="440" y="339.5" />
              <mxPoint x="440" y="339.5" />
            </Array>
          </mxGeometry>
        </mxCell>
        <mxCell id="XKpG1QSNv2qLCJZhFj2I-16" style="edgeStyle=orthogonalEdgeStyle;rounded=0;orthogonalLoop=1;jettySize=auto;html=1;exitX=1;exitY=0.25;exitDx=0;exitDy=0;entryX=0;entryY=0.25;entryDx=0;entryDy=0;" edge="1" parent="1">
          <mxGeometry relative="1" as="geometry">
            <mxPoint x="370" y="379.5" as="sourcePoint" />
            <mxPoint x="470" y="379.5" as="targetPoint" />
            <Array as="points">
              <mxPoint x="440" y="379.5" />
              <mxPoint x="440" y="379.5" />
            </Array>
          </mxGeometry>
        </mxCell>
        <mxCell id="XKpG1QSNv2qLCJZhFj2I-18" style="edgeStyle=orthogonalEdgeStyle;rounded=0;orthogonalLoop=1;jettySize=auto;html=1;exitX=1;exitY=0.5;exitDx=0;exitDy=0;entryX=-0.021;entryY=0.097;entryDx=0;entryDy=0;entryPerimeter=0;" edge="1" parent="1" source="XKpG1QSNv2qLCJZhFj2I-17" target="XKpG1QSNv2qLCJZhFj2I-4">
          <mxGeometry relative="1" as="geometry">
            <Array as="points">
              <mxPoint x="90" y="130" />
              <mxPoint x="400" y="130" />
              <mxPoint x="400" y="197" />
            </Array>
          </mxGeometry>
        </mxCell>
        <mxCell id="XKpG1QSNv2qLCJZhFj2I-17" value="n[3:0]" style="text;html=1;strokeColor=none;fillColor=none;align=center;verticalAlign=middle;whiteSpace=wrap;rounded=0;" vertex="1" parent="1">
          <mxGeometry x="50" y="120" width="40" height="20" as="geometry" />
        </mxCell>
        <mxCell id="XKpG1QSNv2qLCJZhFj2I-20" style="edgeStyle=orthogonalEdgeStyle;rounded=0;orthogonalLoop=1;jettySize=auto;html=1;exitX=1;exitY=0.5;exitDx=0;exitDy=0;entryX=0.023;entryY=0.105;entryDx=0;entryDy=0;entryPerimeter=0;" edge="1" parent="1" source="XKpG1QSNv2qLCJZhFj2I-19" target="XKpG1QSNv2qLCJZhFj2I-3">
          <mxGeometry relative="1" as="geometry" />
        </mxCell>
        <mxCell id="XKpG1QSNv2qLCJZhFj2I-19" value="go" style="text;html=1;strokeColor=none;fillColor=none;align=center;verticalAlign=middle;whiteSpace=wrap;rounded=0;" vertex="1" parent="1">
          <mxGeometry x="50" y="190" width="40" height="20" as="geometry" />
        </mxCell>
        <mxCell id="XKpG1QSNv2qLCJZhFj2I-26" style="edgeStyle=orthogonalEdgeStyle;rounded=0;orthogonalLoop=1;jettySize=auto;html=1;exitX=1;exitY=0.5;exitDx=0;exitDy=0;" edge="1" parent="1" source="XKpG1QSNv2qLCJZhFj2I-21">
          <mxGeometry relative="1" as="geometry">
            <mxPoint x="790" y="230" as="targetPoint" />
          </mxGeometry>
        </mxCell>
        <mxCell id="XKpG1QSNv2qLCJZhFj2I-21" value="out[31:0]" style="text;html=1;strokeColor=none;fillColor=none;align=center;verticalAlign=middle;whiteSpace=wrap;rounded=0;" vertex="1" parent="1">
          <mxGeometry x="610" y="220" width="50" height="20" as="geometry" />
        </mxCell>
        <mxCell id="XKpG1QSNv2qLCJZhFj2I-23" style="edgeStyle=orthogonalEdgeStyle;rounded=0;orthogonalLoop=1;jettySize=auto;html=1;exitX=1;exitY=0.5;exitDx=0;exitDy=0;entryX=-0.002;entryY=0.174;entryDx=0;entryDy=0;entryPerimeter=0;" edge="1" parent="1" source="XKpG1QSNv2qLCJZhFj2I-22" target="XKpG1QSNv2qLCJZhFj2I-3">
          <mxGeometry relative="1" as="geometry">
            <Array as="points">
              <mxPoint x="670" y="540" />
              <mxPoint x="670" y="680" />
              <mxPoint x="130" y="680" />
              <mxPoint x="130" y="234" />
            </Array>
          </mxGeometry>
        </mxCell>
        <mxCell id="XKpG1QSNv2qLCJZhFj2I-22" value="GT12" style="text;html=1;strokeColor=none;fillColor=none;align=center;verticalAlign=middle;whiteSpace=wrap;rounded=0;" vertex="1" parent="1">
          <mxGeometry x="620" y="530" width="40" height="20" as="geometry" />
        </mxCell>
        <mxCell id="XKpG1QSNv2qLCJZhFj2I-25" style="edgeStyle=orthogonalEdgeStyle;rounded=0;orthogonalLoop=1;jettySize=auto;html=1;exitX=1;exitY=0.5;exitDx=0;exitDy=0;entryX=0.002;entryY=0.235;entryDx=0;entryDy=0;entryPerimeter=0;" edge="1" parent="1" source="XKpG1QSNv2qLCJZhFj2I-24" target="XKpG1QSNv2qLCJZhFj2I-3">
          <mxGeometry relative="1" as="geometry">
            <Array as="points">
              <mxPoint x="680" y="560" />
              <mxPoint x="680" y="690" />
              <mxPoint x="120" y="690" />
              <mxPoint x="120" y="263" />
            </Array>
          </mxGeometry>
        </mxCell>
        <mxCell id="XKpG1QSNv2qLCJZhFj2I-24" value="GT" style="text;html=1;strokeColor=none;fillColor=none;align=center;verticalAlign=middle;whiteSpace=wrap;rounded=0;" vertex="1" parent="1">
          <mxGeometry x="620" y="550" width="40" height="20" as="geometry" />
        </mxCell>
        <mxCell id="XKpG1QSNv2qLCJZhFj2I-27" value="rst" style="text;html=1;strokeColor=none;fillColor=none;align=center;verticalAlign=middle;whiteSpace=wrap;rounded=0;" vertex="1" parent="1">
          <mxGeometry x="180" y="550" width="40" height="20" as="geometry" />
        </mxCell>
        <mxCell id="XKpG1QSNv2qLCJZhFj2I-33" style="edgeStyle=orthogonalEdgeStyle;rounded=0;orthogonalLoop=1;jettySize=auto;html=1;exitX=0;exitY=0.5;exitDx=0;exitDy=0;entryX=0;entryY=0.5;entryDx=0;entryDy=0;" edge="1" parent="1" target="XKpG1QSNv2qLCJZhFj2I-28">
          <mxGeometry relative="1" as="geometry">
            <mxPoint x="120" y="560" as="sourcePoint" />
            <Array as="points">
              <mxPoint x="160" y="560" />
              <mxPoint x="160" y="660" />
              <mxPoint x="440" y="660" />
              <mxPoint x="440" y="570" />
            </Array>
          </mxGeometry>
        </mxCell>
        <mxCell id="XKpG1QSNv2qLCJZhFj2I-28" value="rst" style="text;html=1;strokeColor=none;fillColor=none;align=center;verticalAlign=middle;whiteSpace=wrap;rounded=0;" vertex="1" parent="1">
          <mxGeometry x="470" y="560" width="40" height="20" as="geometry" />
        </mxCell>
        <mxCell id="XKpG1QSNv2qLCJZhFj2I-32" style="edgeStyle=orthogonalEdgeStyle;rounded=0;orthogonalLoop=1;jettySize=auto;html=1;exitX=1;exitY=0.5;exitDx=0;exitDy=0;entryX=0;entryY=0.5;entryDx=0;entryDy=0;" edge="1" parent="1" source="XKpG1QSNv2qLCJZhFj2I-30" target="XKpG1QSNv2qLCJZhFj2I-27">
          <mxGeometry relative="1" as="geometry" />
        </mxCell>
        <mxCell id="XKpG1QSNv2qLCJZhFj2I-30" value="rst" style="text;html=1;strokeColor=none;fillColor=none;align=center;verticalAlign=middle;whiteSpace=wrap;rounded=0;" vertex="1" parent="1">
          <mxGeometry x="50" y="550" width="40" height="20" as="geometry" />
        </mxCell>
        <mxCell id="XKpG1QSNv2qLCJZhFj2I-34" value="clk" style="text;html=1;strokeColor=none;fillColor=none;align=center;verticalAlign=middle;whiteSpace=wrap;rounded=0;" vertex="1" parent="1">
          <mxGeometry x="180" y="580" width="40" height="20" as="geometry" />
        </mxCell>
        <mxCell id="XKpG1QSNv2qLCJZhFj2I-39" style="edgeStyle=orthogonalEdgeStyle;rounded=0;orthogonalLoop=1;jettySize=auto;html=1;exitX=0;exitY=0.5;exitDx=0;exitDy=0;entryX=0;entryY=0.5;entryDx=0;entryDy=0;" edge="1" parent="1" target="XKpG1QSNv2qLCJZhFj2I-35">
          <mxGeometry relative="1" as="geometry">
            <mxPoint x="140" y="590" as="sourcePoint" />
            <Array as="points">
              <mxPoint x="140" y="670" />
              <mxPoint x="450" y="670" />
              <mxPoint x="450" y="600" />
            </Array>
          </mxGeometry>
        </mxCell>
        <mxCell id="XKpG1QSNv2qLCJZhFj2I-35" value="clk" style="text;html=1;strokeColor=none;fillColor=none;align=center;verticalAlign=middle;whiteSpace=wrap;rounded=0;" vertex="1" parent="1">
          <mxGeometry x="470" y="590" width="40" height="20" as="geometry" />
        </mxCell>
        <mxCell id="XKpG1QSNv2qLCJZhFj2I-38" style="edgeStyle=orthogonalEdgeStyle;rounded=0;orthogonalLoop=1;jettySize=auto;html=1;exitX=1;exitY=0.5;exitDx=0;exitDy=0;entryX=0;entryY=0.5;entryDx=0;entryDy=0;" edge="1" parent="1" source="XKpG1QSNv2qLCJZhFj2I-37" target="XKpG1QSNv2qLCJZhFj2I-34">
          <mxGeometry relative="1" as="geometry" />
        </mxCell>
        <mxCell id="XKpG1QSNv2qLCJZhFj2I-37" value="clk" style="text;html=1;strokeColor=none;fillColor=none;align=center;verticalAlign=middle;whiteSpace=wrap;rounded=0;" vertex="1" parent="1">
          <mxGeometry x="50" y="580" width="40" height="20" as="geometry" />
        </mxCell>
        <mxCell id="XKpG1QSNv2qLCJZhFj2I-43" style="edgeStyle=orthogonalEdgeStyle;rounded=0;orthogonalLoop=1;jettySize=auto;html=1;exitX=1;exitY=0.5;exitDx=0;exitDy=0;" edge="1" parent="1" source="XKpG1QSNv2qLCJZhFj2I-41">
          <mxGeometry relative="1" as="geometry">
            <mxPoint x="800" y="640" as="targetPoint" />
            <Array as="points">
              <mxPoint x="400" y="560" />
              <mxPoint x="400" y="640" />
            </Array>
          </mxGeometry>
        </mxCell>
        <mxCell id="XKpG1QSNv2qLCJZhFj2I-41" value="Done" style="text;html=1;strokeColor=none;fillColor=none;align=center;verticalAlign=middle;whiteSpace=wrap;rounded=0;" vertex="1" parent="1">
          <mxGeometry x="330" y="550" width="40" height="20" as="geometry" />
        </mxCell>
        <mxCell id="XKpG1QSNv2qLCJZhFj2I-44" style="edgeStyle=orthogonalEdgeStyle;rounded=0;orthogonalLoop=1;jettySize=auto;html=1;exitX=1;exitY=0.25;exitDx=0;exitDy=0;" edge="1" parent="1" source="XKpG1QSNv2qLCJZhFj2I-42">
          <mxGeometry relative="1" as="geometry">
            <mxPoint x="800" y="650" as="targetPoint" />
            <Array as="points">
              <mxPoint x="380" y="585" />
              <mxPoint x="380" y="650" />
            </Array>
          </mxGeometry>
        </mxCell>
        <mxCell id="XKpG1QSNv2qLCJZhFj2I-42" value="err" style="text;html=1;strokeColor=none;fillColor=none;align=center;verticalAlign=middle;whiteSpace=wrap;rounded=0;" vertex="1" parent="1">
          <mxGeometry x="330" y="580" width="40" height="20" as="geometry" />
        </mxCell>
        <mxCell id="XKpG1QSNv2qLCJZhFj2I-45" value="GT" style="text;html=1;strokeColor=none;fillColor=none;align=center;verticalAlign=middle;whiteSpace=wrap;rounded=0;" vertex="1" parent="1">
          <mxGeometry x="180" y="250" width="40" height="20" as="geometry" />
        </mxCell>
        <mxCell id="XKpG1QSNv2qLCJZhFj2I-46" value="GT12" style="text;html=1;strokeColor=none;fillColor=none;align=center;verticalAlign=middle;whiteSpace=wrap;rounded=0;" vertex="1" parent="1">
          <mxGeometry x="180" y="220" width="40" height="20" as="geometry" />
        </mxCell>
        <mxCell id="XKpG1QSNv2qLCJZhFj2I-48" value="&lt;b&gt;&lt;font style=&quot;font-size: 18px&quot;&gt;Factorial&lt;/font&gt;&lt;/b&gt;" style="text;html=1;strokeColor=none;fillColor=none;align=center;verticalAlign=middle;whiteSpace=wrap;rounded=0;" vertex="1" parent="1">
          <mxGeometry x="410" y="90" width="40" height="20" as="geometry" />
        </mxCell>
      </root>
    </mxGraphModel>
  </diagram>
</mxfile>
